<svg width="20" height="20" viewBox="0 0 20 20" fill="none" xmlns="http://www.w3.org/2000/svg">
<g clip-path="url(#clip0)">
<rect width="20" height="20" fill="white"/>
<path d="M14.0419 0H5.95811C2.67279 0 0 2.67279 0 5.95811V14.0419C0 17.3272 2.67279 20 5.95811 20H14.0419C17.3272 20 20 17.3272 20 14.0419V5.95811C20 2.67279 17.3272 0 14.0419 0ZM17.988 14.0419C17.988 16.2212 16.2212 17.988 14.0419 17.988H5.95811C3.77875 17.988 2.012 16.2212 2.012 14.0419V5.95811C2.012 3.77871 3.77875 2.012 5.95811 2.012H14.0419C16.2212 2.012 17.988 3.77871 17.988 5.95811V14.0419Z" fill="#3d5e69"/>
<path d="M5.17271 0C2.32047 0 0 2.32047 0 5.17267C0 8.02488 2.32047 10.3454 5.17271 10.3454C8.02495 10.3454 10.3454 8.02491 10.3454 5.17267C10.3454 2.32044 8.02495 0 5.17271 0ZM5.17271 8.33342C3.42708 8.33342 2.012 6.91834 2.012 5.17271C2.012 3.42708 3.42712 2.012 5.17271 2.012C6.91834 2.012 8.33343 3.42708 8.33343 5.17271C8.33343 6.9183 6.9183 8.33342 5.17271 8.33342Z" transform="translate(4.828 4.82812)" fill="#3d5e69"/>
<path d="M1.23949 2.47898C1.92404 2.47898 2.47898 1.92404 2.47898 1.23949C2.47898 0.554938 1.92404 0 1.23949 0C0.554938 0 0 0.554938 0 1.23949C0 1.92404 0.554938 2.47898 1.23949 2.47898Z" transform="translate(13.9432 3.62695)" fill="#3d5e69"/>
</g>
<defs>
<clipPath id="clip0">
<rect width="20" height="20" fill="white"/>
</clipPath>
</defs>
</svg>