<svg width="20" height="20" viewBox="0 0 20 20" fill="none" xmlns="http://www.w3.org/2000/svg">
<g clip-path="url(#clip0)">
<rect width="20" height="20" fill="white"/>
<path d="M19.6819 1.93532C19.2375 2.13237 18.7763 2.28782 18.3029 2.40036C18.8245 1.90474 19.2166 1.28483 19.4379 0.592898C19.501 0.395363 19.2865 0.224549 19.1081 0.330314C18.4496 0.720898 17.7403 1.01391 16.9999 1.2013C16.9569 1.21218 16.9126 1.21769 16.8681 1.21769C16.7332 1.21769 16.6021 1.16761 16.499 1.07672C15.7112 0.382392 14.6979 5.50597e-08 13.646 5.50597e-08C13.1908 5.50597e-08 12.7312 0.0709489 12.28 0.210896C10.8819 0.644537 9.80311 1.79781 9.46465 3.22069C9.33768 3.75439 9.3033 4.28858 9.3624 4.80838C9.36918 4.86811 9.34094 4.9098 9.32353 4.92936C9.29296 4.96364 9.24961 4.98329 9.2046 4.98329C9.19958 4.98329 9.19441 4.98304 9.18929 4.98256C6.12889 4.69823 3.36915 3.22381 1.41842 0.830955C1.31895 0.708903 1.12819 0.723873 1.0489 0.85987C0.666902 1.51523 0.465027 2.2648 0.465027 3.02754C0.465027 4.19646 0.934654 5.29805 1.75039 6.10111C1.40735 6.01977 1.07533 5.89168 0.766913 5.72038C0.617701 5.63748 0.434112 5.74403 0.432015 5.91469C0.410657 7.65121 1.42735 9.19638 2.95038 9.89217C2.91971 9.8929 2.88904 9.89324 2.85832 9.89324C2.6169 9.89324 2.37245 9.86993 2.13186 9.82395C1.96383 9.79186 1.82266 9.95127 1.87484 10.1142C2.36919 11.6575 3.69805 12.7952 5.28828 13.0535C3.96848 13.9394 2.43155 14.4068 0.831913 14.4068L0.333223 14.4065C0.179574 14.4065 0.0496227 14.5066 0.0104668 14.6554C-0.028104 14.802 0.0429423 14.9566 0.173966 15.0329C1.9765 16.0819 4.03256 16.6363 6.12074 16.6363C7.94859 16.6363 9.65838 16.2736 11.2027 15.5582C12.6184 14.9024 13.8694 13.965 14.921 12.7719C15.9007 11.6605 16.6667 10.3775 17.1978 8.95866C17.7041 7.60615 17.9717 6.16299 17.9717 4.78517V4.71953C17.9717 4.4983 18.0717 4.29014 18.2463 4.14843C18.9087 3.61059 19.4856 2.97746 19.9608 2.26666C20.0863 2.07897 19.8884 1.84374 19.6819 1.93532Z" transform="translate(0 1.68164)" fill="#3d5e69"/>
</g>
<defs>
<clipPath id="clip0">
<rect width="20" height="20" fill="white"/>
</clipPath>
</defs>
</svg>