<svg width="20" height="20" viewBox="0 0 20 20" fill="none" xmlns="http://www.w3.org/2000/svg">
<rect width="20" height="20" fill="white"/>
<path d="M18.8962 0H1.10375C0.49375 0 0 0.49375 0 1.10375V18.8962C0 19.5062 0.49375 20 1.10375 20H10.6825V12.255H8.075V9.2375H10.6825V7.00875C10.6825 4.42625 12.26 3.02125 14.565 3.02125C15.6688 3.02125 16.6175 3.10125 16.8938 3.13875V5.83875H15.2937C14.0437 5.83875 13.8 6.43875 13.8 7.31375V9.23875H16.7875L16.4 12.2637H13.8V20H18.8962C19.5062 20 20 19.5062 20 18.8962V1.10375C20 0.49375 19.5062 0 18.8962 0Z" fill="#3d5e69"/>
</svg>